# xmcd
#
# Track frame offsets: 
#        150
#        17742
#        31175
#        50920
#        75990
#        104200
#        119210
#        141192
#        158000
#        174425
#        206125
#        224497
#
# Disc length: 3164 seconds
#
# Revision: 0
# Processed by: cddbd v1.4PL0 Copyright (c) Steve Scherf et al.
# Submitted via: ExactAudioCopy v0.90b4
#
DISCID=b10c5a0c
DTITLE=Pritchett, Phil - Phil Comes Alive
DYEAR=1997
DGENRE=Country
TTITLE0=Rolling
TTITLE1=Antartica, U.S.A.
TTITLE2=Snuff Machine
TTITLE3=Meet Me In Las Vegas
TTITLE4=Maria
TTITLE5=Down And Out On Cloud 9
TTITLE6=My Roommate
TTITLE7=Playing In A Band
TTITLE8=Katarina
TTITLE9=Alive on 35
TTITLE10=Drink When I Think
TTITLE11=The Encore
EXTD=
EXTT0=
EXTT1=
EXTT2=
EXTT3=
EXTT4=
EXTT5=
EXTT6=
EXTT7=
EXTT8=
EXTT9=
EXTT10=
EXTT11=
PLAYORDER=
